<svg width="28" height="36" viewBox="0 0 28 36" fill="none" xmlns="http://www.w3.org/2000/svg">
<path d="M21.88 36C21.406 36 20.983 35.898 20.611 35.694C20.239 35.49 19.945 35.217 19.729 34.875C19.513 34.527 19.405 34.137 19.405 33.705C19.405 33.273 19.513 32.886 19.729 32.544C19.945 32.196 20.239 31.92 20.611 31.716C20.983 31.512 21.406 31.41 21.88 31.41H22.42V32.121H21.853C21.547 32.121 21.271 32.193 21.025 32.337C20.785 32.475 20.593 32.664 20.449 32.904C20.311 33.144 20.242 33.411 20.242 33.705C20.242 33.999 20.311 34.266 20.449 34.506C20.593 34.746 20.785 34.938 21.025 35.082C21.271 35.22 21.547 35.289 21.853 35.289H22.42V36H21.88ZM24.041 36C23.849 36 23.678 35.955 23.528 35.865C23.378 35.775 23.258 35.655 23.168 35.505C23.084 35.349 23.042 35.181 23.042 35.001C23.042 34.809 23.087 34.641 23.177 34.497C23.273 34.347 23.411 34.212 23.591 34.092L25.706 32.751C25.796 32.697 25.853 32.643 25.877 32.589C25.907 32.535 25.922 32.478 25.922 32.418C25.922 32.346 25.892 32.28 25.832 32.22C25.772 32.154 25.694 32.121 25.598 32.121H23.267V31.41H25.85C26.036 31.41 26.201 31.455 26.345 31.545C26.495 31.635 26.612 31.758 26.696 31.914C26.786 32.064 26.831 32.229 26.831 32.409C26.831 32.595 26.783 32.766 26.687 32.922C26.597 33.072 26.465 33.204 26.291 33.318L24.176 34.659C24.086 34.713 24.026 34.767 23.996 34.821C23.972 34.875 23.96 34.932 23.96 34.992C23.96 35.064 23.99 35.133 24.05 35.199C24.11 35.259 24.191 35.289 24.293 35.289H26.75V36H24.041Z" fill="#ADB1FF"/>
<path d="M4.944 36V15.312H0.672V11.52H4.944V7.92C4.944 5.744 5.552 4.048 6.768 2.832C8.016 1.584 9.728 0.959999 11.904 0.959999H17.952V4.752H12.768C11.68 4.752 10.848 5.056 10.272 5.664C9.696 6.272 9.408 7.12 9.408 8.208V11.52H16.992V15.312H9.408V36H4.944Z" fill="#6A39E4"/>
<path d="M12.944 36V15.312H8.672V11.52H12.944V7.92C12.944 5.744 13.552 4.048 14.768 2.832C16.016 1.584 17.728 0.959999 19.904 0.959999H25.952V4.752H20.768C19.68 4.752 18.848 5.056 18.272 5.664C17.696 6.272 17.408 7.12 17.408 8.208V11.52H24.992V15.312H17.408V36H12.944Z" fill="#6A0DF4"/>
</svg>
