<svg width="222" height="36" viewBox="0 0 222 36" fill="none" xmlns="http://www.w3.org/2000/svg">
<g filter="url(#filter0_d_63_5192)">
<rect x="80" y="18" width="4" height="10" rx="2" fill="url(#paint0_linear_63_5192)"/>
</g>
<g filter="url(#filter1_d_63_5192)">
<rect x="88" y="12" width="4" height="16" rx="2" fill="url(#paint1_linear_63_5192)"/>
</g>
<g filter="url(#filter2_d_63_5192)">
<rect x="96" y="6" width="4" height="22" rx="2" fill="url(#paint2_linear_63_5192)"/>
</g>
<g filter="url(#filter3_d_63_5192)">
<rect x="104" width="4" height="28" rx="2" fill="url(#paint3_linear_63_5192)"/>
</g>
<path d="M16.646 23.856C16.7953 23.856 16.926 23.9167 17.038 24.038L18.116 25.2C17.2947 26.152 16.296 26.894 15.12 27.426C13.9533 27.958 12.5393 28.224 10.878 28.224C9.44067 28.224 8.134 27.9767 6.958 27.482C5.782 26.978 4.77867 26.278 3.948 25.382C3.11733 24.4767 2.47333 23.394 2.016 22.134C1.55867 20.874 1.33 19.488 1.33 17.976C1.33 16.464 1.568 15.078 2.044 13.818C2.52 12.558 3.18733 11.4753 4.046 10.57C4.914 9.66467 5.95 8.96467 7.154 8.47C8.358 7.966 9.688 7.714 11.144 7.714C12.572 7.714 13.832 7.94267 14.924 8.4C16.016 8.85733 16.9773 9.478 17.808 10.262L16.912 11.508C16.856 11.6013 16.7813 11.6807 16.688 11.746C16.604 11.802 16.4873 11.83 16.338 11.83C16.17 11.83 15.9647 11.7413 15.722 11.564C15.4793 11.3773 15.162 11.172 14.77 10.948C14.378 10.724 13.888 10.5233 13.3 10.346C12.712 10.1593 11.9887 10.066 11.13 10.066C10.094 10.066 9.14667 10.248 8.288 10.612C7.42933 10.9667 6.68733 11.4847 6.062 12.166C5.446 12.8473 4.96533 13.678 4.62 14.658C4.27467 15.638 4.102 16.744 4.102 17.976C4.102 19.2267 4.27933 20.342 4.634 21.322C4.998 22.302 5.488 23.1327 6.104 23.814C6.72933 24.486 7.462 24.9993 8.302 25.354C9.15133 25.7087 10.066 25.886 11.046 25.886C11.6433 25.886 12.18 25.8533 12.656 25.788C13.1413 25.7133 13.5847 25.6013 13.986 25.452C14.3967 25.3027 14.7747 25.116 15.12 24.892C15.4747 24.6587 15.8247 24.3833 16.17 24.066C16.3287 23.926 16.4873 23.856 16.646 23.856ZM30.4631 14.882C30.4631 15.0593 30.4305 15.232 30.3651 15.4C30.3091 15.568 30.2298 15.7127 30.1271 15.834L22.4411 26.054H30.1971V28H19.5151V26.964C19.5151 26.8427 19.5431 26.7027 19.5991 26.544C19.6551 26.376 19.7391 26.2173 19.8511 26.068L27.5791 15.778H19.9491V13.818H30.4631V14.882ZM42.5558 19.362C42.5558 18.7833 42.4718 18.256 42.3038 17.78C42.1452 17.2947 41.9072 16.8793 41.5898 16.534C41.2818 16.1793 40.9038 15.9087 40.4558 15.722C40.0078 15.526 39.4992 15.428 38.9298 15.428C37.7352 15.428 36.7878 15.778 36.0878 16.478C35.3972 17.1687 34.9678 18.13 34.7998 19.362H42.5558ZM44.5718 26.012C44.2638 26.3853 43.8952 26.712 43.4658 26.992C43.0365 27.2627 42.5745 27.4867 42.0798 27.664C41.5945 27.8413 41.0905 27.972 40.5678 28.056C40.0452 28.1493 39.5272 28.196 39.0138 28.196C38.0338 28.196 37.1285 28.0327 36.2978 27.706C35.4765 27.37 34.7625 26.8847 34.1558 26.25C33.5585 25.606 33.0918 24.8127 32.7558 23.87C32.4198 22.9273 32.2518 21.8447 32.2518 20.622C32.2518 19.6327 32.4012 18.7087 32.6998 17.85C33.0078 16.9913 33.4465 16.2493 34.0158 15.624C34.5852 14.9893 35.2805 14.4947 36.1018 14.14C36.9232 13.776 37.8472 13.594 38.8738 13.594C39.7232 13.594 40.5072 13.7387 41.2258 14.028C41.9538 14.308 42.5792 14.7187 43.1018 15.26C43.6338 15.792 44.0492 16.4547 44.3478 17.248C44.6465 18.032 44.7958 18.928 44.7958 19.936C44.7958 20.328 44.7538 20.5893 44.6698 20.72C44.5858 20.8507 44.4272 20.916 44.1938 20.916H34.7158C34.7438 21.812 34.8652 22.5913 35.0798 23.254C35.3038 23.9167 35.6118 24.472 36.0038 24.92C36.3958 25.3587 36.8625 25.69 37.4038 25.914C37.9452 26.1287 38.5518 26.236 39.2238 26.236C39.8492 26.236 40.3858 26.166 40.8338 26.026C41.2912 25.8767 41.6832 25.718 42.0098 25.55C42.3365 25.382 42.6072 25.228 42.8218 25.088C43.0458 24.9387 43.2372 24.864 43.3958 24.864C43.6012 24.864 43.7598 24.9433 43.8718 25.102L44.5718 26.012ZM57.7268 16.338C57.6521 16.4407 57.5775 16.52 57.5028 16.576C57.4281 16.632 57.3255 16.66 57.1948 16.66C57.0548 16.66 56.9008 16.604 56.7328 16.492C56.5648 16.3707 56.3548 16.24 56.1028 16.1C55.8601 15.96 55.5568 15.834 55.1928 15.722C54.8381 15.6007 54.3995 15.54 53.8768 15.54C53.1768 15.54 52.5608 15.666 52.0288 15.918C51.4968 16.1607 51.0488 16.5153 50.6848 16.982C50.3301 17.4487 50.0595 18.0133 49.8728 18.676C49.6955 19.3387 49.6068 20.0807 49.6068 20.902C49.6068 21.7607 49.7048 22.526 49.9008 23.198C50.0968 23.8607 50.3721 24.4207 50.7268 24.878C51.0908 25.326 51.5248 25.6713 52.0288 25.914C52.5421 26.1473 53.1161 26.264 53.7508 26.264C54.3575 26.264 54.8568 26.194 55.2488 26.054C55.6408 25.9047 55.9628 25.7413 56.2148 25.564C56.4761 25.3867 56.6908 25.228 56.8588 25.088C57.0361 24.9387 57.2088 24.864 57.3768 24.864C57.5821 24.864 57.7408 24.9433 57.8528 25.102L58.5528 26.012C58.2448 26.3947 57.8948 26.7213 57.5028 26.992C57.1108 27.2627 56.6861 27.4913 56.2288 27.678C55.7808 27.8553 55.3095 27.986 54.8148 28.07C54.3201 28.154 53.8161 28.196 53.3028 28.196C52.4161 28.196 51.5901 28.0327 50.8248 27.706C50.0688 27.3793 49.4108 26.908 48.8508 26.292C48.2908 25.6667 47.8521 24.9013 47.5348 23.996C47.2175 23.0907 47.0588 22.0593 47.0588 20.902C47.0588 19.8473 47.2035 18.872 47.4928 17.976C47.7915 17.08 48.2208 16.31 48.7808 15.666C49.3501 15.0127 50.0455 14.504 50.8668 14.14C51.6975 13.776 52.6495 13.594 53.7228 13.594C54.7215 13.594 55.5988 13.7573 56.3548 14.084C57.1201 14.4013 57.7968 14.854 58.3848 15.442L57.7268 16.338ZM63.7339 15.708C64.3406 15.064 65.0126 14.5507 65.7499 14.168C66.4872 13.7853 67.3366 13.594 68.2979 13.594C69.0726 13.594 69.7539 13.7247 70.3419 13.986C70.9392 14.238 71.4339 14.602 71.8259 15.078C72.2272 15.5447 72.5306 16.1093 72.7359 16.772C72.9412 17.4347 73.0439 18.1673 73.0439 18.97V28H70.5379V18.97C70.5379 17.8967 70.2906 17.066 69.7959 16.478C69.3106 15.8807 68.5686 15.582 67.5699 15.582C66.8326 15.582 66.1419 15.7593 65.4979 16.114C64.8632 16.4687 64.2752 16.9493 63.7339 17.556V28H61.2279V7.378H63.7339V15.708Z" fill="url(#paint4_linear_63_5192)"/>
<path d="M118.278 10.15V17.164H126.524V19.376H118.278V28H115.562V7.938H127.924V10.15H118.278ZM133.383 13.818V28H130.891V13.818H133.383ZM133.915 9.366C133.915 9.60867 133.864 9.83733 133.761 10.052C133.668 10.2573 133.537 10.444 133.369 10.612C133.211 10.7707 133.019 10.8967 132.795 10.99C132.581 11.0833 132.352 11.13 132.109 11.13C131.867 11.13 131.638 11.0833 131.423 10.99C131.218 10.8967 131.036 10.7707 130.877 10.612C130.719 10.444 130.593 10.2573 130.499 10.052C130.406 9.83733 130.359 9.60867 130.359 9.366C130.359 9.12333 130.406 8.89467 130.499 8.68C130.593 8.456 130.719 8.26467 130.877 8.106C131.036 7.938 131.218 7.80733 131.423 7.714C131.638 7.62067 131.867 7.574 132.109 7.574C132.352 7.574 132.581 7.62067 132.795 7.714C133.019 7.80733 133.211 7.938 133.369 8.106C133.537 8.26467 133.668 8.456 133.761 8.68C133.864 8.89467 133.915 9.12333 133.915 9.366ZM139.83 15.876C140.138 15.5307 140.465 15.218 140.81 14.938C141.155 14.658 141.519 14.42 141.902 14.224C142.294 14.0187 142.705 13.8647 143.134 13.762C143.573 13.65 144.044 13.594 144.548 13.594C145.323 13.594 146.004 13.7247 146.592 13.986C147.189 14.238 147.684 14.602 148.076 15.078C148.477 15.5447 148.781 16.1093 148.986 16.772C149.191 17.4347 149.294 18.1673 149.294 18.97V28H146.788V18.97C146.788 17.8967 146.541 17.066 146.046 16.478C145.561 15.8807 144.819 15.582 143.82 15.582C143.083 15.582 142.392 15.7593 141.748 16.114C141.113 16.4687 140.525 16.9493 139.984 17.556V28H137.478V13.818H138.976C139.331 13.818 139.55 13.9907 139.634 14.336L139.83 15.876ZM160.777 21.616C159.629 21.6533 158.649 21.7467 157.837 21.896C157.035 22.036 156.377 22.2227 155.863 22.456C155.359 22.6893 154.991 22.9647 154.757 23.282C154.533 23.5993 154.421 23.954 154.421 24.346C154.421 24.7193 154.482 25.0413 154.603 25.312C154.725 25.5827 154.888 25.8067 155.093 25.984C155.308 26.152 155.555 26.278 155.835 26.362C156.125 26.4367 156.433 26.474 156.759 26.474C157.198 26.474 157.599 26.432 157.963 26.348C158.327 26.2547 158.668 26.124 158.985 25.956C159.312 25.788 159.62 25.5873 159.909 25.354C160.208 25.1207 160.497 24.8547 160.777 24.556V21.616ZM152.727 15.82C153.511 15.064 154.356 14.4993 155.261 14.126C156.167 13.7527 157.17 13.566 158.271 13.566C159.065 13.566 159.769 13.6967 160.385 13.958C161.001 14.2193 161.519 14.5833 161.939 15.05C162.359 15.5167 162.677 16.0813 162.891 16.744C163.106 17.4067 163.213 18.1347 163.213 18.928V28H162.107C161.865 28 161.678 27.9627 161.547 27.888C161.417 27.804 161.314 27.6453 161.239 27.412L160.959 26.068C160.586 26.4133 160.222 26.7213 159.867 26.992C159.513 27.2533 159.139 27.4773 158.747 27.664C158.355 27.8413 157.935 27.9767 157.487 28.07C157.049 28.1727 156.559 28.224 156.017 28.224C155.467 28.224 154.949 28.1493 154.463 28C153.978 27.8413 153.553 27.608 153.189 27.3C152.835 26.992 152.55 26.6047 152.335 26.138C152.13 25.662 152.027 25.102 152.027 24.458C152.027 23.898 152.181 23.3613 152.489 22.848C152.797 22.3253 153.297 21.8633 153.987 21.462C154.678 21.0607 155.579 20.734 156.689 20.482C157.8 20.2207 159.163 20.0713 160.777 20.034V18.928C160.777 17.8267 160.539 16.996 160.063 16.436C159.587 15.8667 158.892 15.582 157.977 15.582C157.361 15.582 156.843 15.6613 156.423 15.82C156.013 15.9693 155.653 16.142 155.345 16.338C155.047 16.5247 154.785 16.6973 154.561 16.856C154.347 17.0053 154.132 17.08 153.917 17.08C153.749 17.08 153.605 17.038 153.483 16.954C153.362 16.8607 153.259 16.7487 153.175 16.618L152.727 15.82ZM169.361 15.876C169.669 15.5307 169.996 15.218 170.341 14.938C170.686 14.658 171.05 14.42 171.433 14.224C171.825 14.0187 172.236 13.8647 172.665 13.762C173.104 13.65 173.575 13.594 174.079 13.594C174.854 13.594 175.535 13.7247 176.123 13.986C176.72 14.238 177.215 14.602 177.607 15.078C178.008 15.5447 178.312 16.1093 178.517 16.772C178.722 17.4347 178.825 18.1673 178.825 18.97V28H176.319V18.97C176.319 17.8967 176.072 17.066 175.577 16.478C175.092 15.8807 174.35 15.582 173.351 15.582C172.614 15.582 171.923 15.7593 171.279 16.114C170.644 16.4687 170.056 16.9493 169.515 17.556V28H167.009V13.818H168.507C168.862 13.818 169.081 13.9907 169.165 14.336L169.361 15.876ZM192.492 16.338C192.418 16.4407 192.343 16.52 192.268 16.576C192.194 16.632 192.091 16.66 191.96 16.66C191.82 16.66 191.666 16.604 191.498 16.492C191.33 16.3707 191.12 16.24 190.868 16.1C190.626 15.96 190.322 15.834 189.958 15.722C189.604 15.6007 189.165 15.54 188.642 15.54C187.942 15.54 187.326 15.666 186.794 15.918C186.262 16.1607 185.814 16.5153 185.45 16.982C185.096 17.4487 184.825 18.0133 184.638 18.676C184.461 19.3387 184.372 20.0807 184.372 20.902C184.372 21.7607 184.47 22.526 184.666 23.198C184.862 23.8607 185.138 24.4207 185.492 24.878C185.856 25.326 186.29 25.6713 186.794 25.914C187.308 26.1473 187.882 26.264 188.516 26.264C189.123 26.264 189.622 26.194 190.014 26.054C190.406 25.9047 190.728 25.7413 190.98 25.564C191.242 25.3867 191.456 25.228 191.624 25.088C191.802 24.9387 191.974 24.864 192.142 24.864C192.348 24.864 192.506 24.9433 192.618 25.102L193.318 26.012C193.01 26.3947 192.66 26.7213 192.268 26.992C191.876 27.2627 191.452 27.4913 190.994 27.678C190.546 27.8553 190.075 27.986 189.58 28.07C189.086 28.154 188.582 28.196 188.068 28.196C187.182 28.196 186.356 28.0327 185.59 27.706C184.834 27.3793 184.176 26.908 183.616 26.292C183.056 25.6667 182.618 24.9013 182.3 23.996C181.983 23.0907 181.824 22.0593 181.824 20.902C181.824 19.8473 181.969 18.872 182.258 17.976C182.557 17.08 182.986 16.31 183.546 15.666C184.116 15.0127 184.811 14.504 185.632 14.14C186.463 13.776 187.415 13.594 188.488 13.594C189.487 13.594 190.364 13.7573 191.12 14.084C191.886 14.4013 192.562 14.854 193.15 15.442L192.492 16.338ZM198.626 13.818V28H196.134V13.818H198.626ZM199.158 9.366C199.158 9.60867 199.106 9.83733 199.004 10.052C198.91 10.2573 198.78 10.444 198.612 10.612C198.453 10.7707 198.262 10.8967 198.038 10.99C197.823 11.0833 197.594 11.13 197.352 11.13C197.109 11.13 196.88 11.0833 196.666 10.99C196.46 10.8967 196.278 10.7707 196.12 10.612C195.961 10.444 195.835 10.2573 195.742 10.052C195.648 9.83733 195.602 9.60867 195.602 9.366C195.602 9.12333 195.648 8.89467 195.742 8.68C195.835 8.456 195.961 8.26467 196.12 8.106C196.278 7.938 196.46 7.80733 196.666 7.714C196.88 7.62067 197.109 7.574 197.352 7.574C197.594 7.574 197.823 7.62067 198.038 7.714C198.262 7.80733 198.453 7.938 198.612 8.106C198.78 8.26467 198.91 8.456 199.004 8.68C199.106 8.89467 199.158 9.12333 199.158 9.366ZM210.406 21.616C209.258 21.6533 208.278 21.7467 207.466 21.896C206.663 22.036 206.005 22.2227 205.492 22.456C204.988 22.6893 204.619 22.9647 204.386 23.282C204.162 23.5993 204.05 23.954 204.05 24.346C204.05 24.7193 204.111 25.0413 204.232 25.312C204.353 25.5827 204.517 25.8067 204.722 25.984C204.937 26.152 205.184 26.278 205.464 26.362C205.753 26.4367 206.061 26.474 206.388 26.474C206.827 26.474 207.228 26.432 207.592 26.348C207.956 26.2547 208.297 26.124 208.614 25.956C208.941 25.788 209.249 25.5873 209.538 25.354C209.837 25.1207 210.126 24.8547 210.406 24.556V21.616ZM202.356 15.82C203.14 15.064 203.985 14.4993 204.89 14.126C205.795 13.7527 206.799 13.566 207.9 13.566C208.693 13.566 209.398 13.6967 210.014 13.958C210.63 14.2193 211.148 14.5833 211.568 15.05C211.988 15.5167 212.305 16.0813 212.52 16.744C212.735 17.4067 212.842 18.1347 212.842 18.928V28H211.736C211.493 28 211.307 27.9627 211.176 27.888C211.045 27.804 210.943 27.6453 210.868 27.412L210.588 26.068C210.215 26.4133 209.851 26.7213 209.496 26.992C209.141 27.2533 208.768 27.4773 208.376 27.664C207.984 27.8413 207.564 27.9767 207.116 28.07C206.677 28.1727 206.187 28.224 205.646 28.224C205.095 28.224 204.577 28.1493 204.092 28C203.607 27.8413 203.182 27.608 202.818 27.3C202.463 26.992 202.179 26.6047 201.964 26.138C201.759 25.662 201.656 25.102 201.656 24.458C201.656 23.898 201.81 23.3613 202.118 22.848C202.426 22.3253 202.925 21.8633 203.616 21.462C204.307 21.0607 205.207 20.734 206.318 20.482C207.429 20.2207 208.791 20.0713 210.406 20.034V18.928C210.406 17.8267 210.168 16.996 209.692 16.436C209.216 15.8667 208.521 15.582 207.606 15.582C206.99 15.582 206.472 15.6613 206.052 15.82C205.641 15.9693 205.282 16.142 204.974 16.338C204.675 16.5247 204.414 16.6973 204.19 16.856C203.975 17.0053 203.761 17.08 203.546 17.08C203.378 17.08 203.233 17.038 203.112 16.954C202.991 16.8607 202.888 16.7487 202.804 16.618L202.356 15.82ZM219.214 7.378V28H216.722V7.378H219.214Z" fill="url(#paint5_linear_63_5192)"/>
<defs>
<filter id="filter0_d_63_5192" x="76" y="18" width="12" height="18" filterUnits="userSpaceOnUse" color-interpolation-filters="sRGB">
<feFlood flood-opacity="0" result="BackgroundImageFix"/>
<feColorMatrix in="SourceAlpha" type="matrix" values="0 0 0 0 0 0 0 0 0 0 0 0 0 0 0 0 0 0 127 0" result="hardAlpha"/>
<feOffset dy="4"/>
<feGaussianBlur stdDeviation="2"/>
<feComposite in2="hardAlpha" operator="out"/>
<feColorMatrix type="matrix" values="0 0 0 0 0 0 0 0 0 0 0 0 0 0 0 0 0 0 0.25 0"/>
<feBlend mode="normal" in2="BackgroundImageFix" result="effect1_dropShadow_63_5192"/>
<feBlend mode="normal" in="SourceGraphic" in2="effect1_dropShadow_63_5192" result="shape"/>
</filter>
<filter id="filter1_d_63_5192" x="84" y="12" width="12" height="24" filterUnits="userSpaceOnUse" color-interpolation-filters="sRGB">
<feFlood flood-opacity="0" result="BackgroundImageFix"/>
<feColorMatrix in="SourceAlpha" type="matrix" values="0 0 0 0 0 0 0 0 0 0 0 0 0 0 0 0 0 0 127 0" result="hardAlpha"/>
<feOffset dy="4"/>
<feGaussianBlur stdDeviation="2"/>
<feComposite in2="hardAlpha" operator="out"/>
<feColorMatrix type="matrix" values="0 0 0 0 0 0 0 0 0 0 0 0 0 0 0 0 0 0 0.25 0"/>
<feBlend mode="normal" in2="BackgroundImageFix" result="effect1_dropShadow_63_5192"/>
<feBlend mode="normal" in="SourceGraphic" in2="effect1_dropShadow_63_5192" result="shape"/>
</filter>
<filter id="filter2_d_63_5192" x="92" y="6" width="12" height="30" filterUnits="userSpaceOnUse" color-interpolation-filters="sRGB">
<feFlood flood-opacity="0" result="BackgroundImageFix"/>
<feColorMatrix in="SourceAlpha" type="matrix" values="0 0 0 0 0 0 0 0 0 0 0 0 0 0 0 0 0 0 127 0" result="hardAlpha"/>
<feOffset dy="4"/>
<feGaussianBlur stdDeviation="2"/>
<feComposite in2="hardAlpha" operator="out"/>
<feColorMatrix type="matrix" values="0 0 0 0 0 0 0 0 0 0 0 0 0 0 0 0 0 0 0.25 0"/>
<feBlend mode="normal" in2="BackgroundImageFix" result="effect1_dropShadow_63_5192"/>
<feBlend mode="normal" in="SourceGraphic" in2="effect1_dropShadow_63_5192" result="shape"/>
</filter>
<filter id="filter3_d_63_5192" x="100" y="0" width="12" height="36" filterUnits="userSpaceOnUse" color-interpolation-filters="sRGB">
<feFlood flood-opacity="0" result="BackgroundImageFix"/>
<feColorMatrix in="SourceAlpha" type="matrix" values="0 0 0 0 0 0 0 0 0 0 0 0 0 0 0 0 0 0 127 0" result="hardAlpha"/>
<feOffset dy="4"/>
<feGaussianBlur stdDeviation="2"/>
<feComposite in2="hardAlpha" operator="out"/>
<feColorMatrix type="matrix" values="0 0 0 0 0 0 0 0 0 0 0 0 0 0 0 0 0 0 0.25 0"/>
<feBlend mode="normal" in2="BackgroundImageFix" result="effect1_dropShadow_63_5192"/>
<feBlend mode="normal" in="SourceGraphic" in2="effect1_dropShadow_63_5192" result="shape"/>
</filter>
<linearGradient id="paint0_linear_63_5192" x1="82" y1="18" x2="82" y2="28" gradientUnits="userSpaceOnUse">
<stop stop-color="#7C80CB"/>
<stop offset="0.480768" stop-color="#CACCFF"/>
<stop offset="0.980791" stop-color="#C492E6"/>
</linearGradient>
<linearGradient id="paint1_linear_63_5192" x1="90" y1="12" x2="90" y2="28" gradientUnits="userSpaceOnUse">
<stop stop-color="#7C80CB"/>
<stop offset="0.480768" stop-color="#CACCFF"/>
<stop offset="0.980791" stop-color="#C492E6"/>
</linearGradient>
<linearGradient id="paint2_linear_63_5192" x1="98" y1="6" x2="98" y2="28" gradientUnits="userSpaceOnUse">
<stop stop-color="#7C80CB"/>
<stop offset="0.480768" stop-color="#CACCFF"/>
<stop offset="0.980791" stop-color="#C492E6"/>
</linearGradient>
<linearGradient id="paint3_linear_63_5192" x1="106" y1="0" x2="106" y2="28" gradientUnits="userSpaceOnUse">
<stop stop-color="#7C80CB"/>
<stop offset="0.480768" stop-color="#CACCFF"/>
<stop offset="0.980791" stop-color="#C492E6"/>
</linearGradient>
<linearGradient id="paint4_linear_63_5192" x1="37.5" y1="0" x2="37.5" y2="28" gradientUnits="userSpaceOnUse">
<stop stop-color="#585FE9"/>
<stop offset="0.557695" stop-color="#C1C3FF"/>
<stop offset="0.995215" stop-color="#BA8CE8"/>
</linearGradient>
<linearGradient id="paint5_linear_63_5192" x1="167.5" y1="0" x2="167.5" y2="28" gradientUnits="userSpaceOnUse">
<stop stop-color="#585FE9"/>
<stop offset="0.557695" stop-color="#C1C3FF"/>
<stop offset="0.995215" stop-color="#BA8CE8"/>
</linearGradient>
</defs>
</svg>
